<svg width="165" height="36" viewBox="0 0 165 36" fill="none" xmlns="http://www.w3.org/2000/svg">
<path d="M26.667 22.833C29.6123 22.833 32 20.4453 32 17.5C32 14.5547 29.6123 12.167 26.667 12.167C23.7216 12.167 21.334 14.5547 21.334 17.5C21.334 20.4453 23.7216 22.833 26.667 22.833Z" fill="#004DDA"/>
<path d="M41.751 12.167H37.909C38.679 13.785 39.111 15.593 39.111 17.5C39.111 24.362 33.528 29.945 26.666 29.945H3.556L0 33.5H26.667C35.49 33.5 42.667 26.322 42.667 17.5C42.667 15.631 42.343 13.836 41.751 12.167Z" fill="#004DDA"/>
<path d="M35.901 12.167H31.367C32.845 13.47 33.777 15.376 33.777 17.5C33.777 21.427 30.594 24.61 26.666 24.61H8.88898L5.33398 28.166H26.667C32.549 28.166 37.334 23.383 37.334 17.5C37.333 15.559 36.812 13.737 35.901 12.167Z" fill="#004DDA"/>
<path d="M11.582 22.834H15.425C14.654 21.216 14.223 19.407 14.223 17.5C14.223 10.638 19.805 5.055 26.667 5.055H49.778L53.333 1.5H26.667C17.845 1.5 10.667 8.678 10.667 17.5C10.667 19.369 10.99 21.164 11.582 22.834Z" fill="#004DDA"/>
<path d="M17.432 22.834H21.966C20.489 21.53 19.556 19.625 19.556 17.5C19.556 13.573 22.74 10.389 26.667 10.389H44.445L48 6.83301H26.667C20.785 6.83301 16 11.618 16 17.5C16 19.441 16.522 21.264 17.432 22.834Z" fill="#004DDA"/>
<path d="M63.036 12.342C62.672 11.753 62.186 11.324 61.58 11.055C60.973 10.786 60.341 10.652 59.682 10.652C59.197 10.652 58.72 10.713 58.252 10.834C57.784 10.956 57.363 11.138 56.991 11.38C56.618 11.623 56.319 11.943 56.094 12.342C55.868 12.741 55.756 13.209 55.756 13.746C55.756 14.162 55.821 14.53 55.951 14.851C56.081 15.172 56.293 15.462 56.588 15.722C56.882 15.982 57.281 16.225 57.784 16.45C58.286 16.675 58.902 16.901 59.63 17.126C60.34 17.352 61.029 17.594 61.697 17.854C62.364 18.114 62.953 18.443 63.465 18.842C63.976 19.24 64.383 19.738 64.687 20.337C64.991 20.936 65.142 21.686 65.142 22.586C65.142 23.505 64.96 24.302 64.596 24.979C64.232 25.655 63.751 26.213 63.153 26.655C62.555 27.098 61.866 27.426 61.086 27.643C60.306 27.86 59.5 27.968 58.668 27.968C58.131 27.968 57.593 27.92 57.056 27.825C56.518 27.729 56.003 27.582 55.509 27.383C55.015 27.184 54.551 26.924 54.118 26.604C53.684 26.283 53.312 25.889 53 25.42L54.872 23.887C55.27 24.563 55.825 25.074 56.536 25.42C57.246 25.768 58.001 25.94 58.798 25.94C59.266 25.94 59.738 25.872 60.215 25.733C60.692 25.594 61.12 25.391 61.502 25.122C61.883 24.853 62.195 24.52 62.438 24.121C62.681 23.723 62.802 23.263 62.802 22.743C62.802 22.171 62.706 21.708 62.516 21.352C62.325 20.997 62.031 20.688 61.632 20.428C61.233 20.168 60.731 19.934 60.124 19.727C59.517 19.518 58.807 19.276 57.992 18.998C57.333 18.79 56.726 18.552 56.172 18.283C55.617 18.014 55.136 17.685 54.729 17.295C54.322 16.905 54.001 16.437 53.767 15.891C53.533 15.345 53.416 14.691 53.416 13.928C53.416 13.044 53.589 12.273 53.936 11.614C54.283 10.956 54.751 10.405 55.34 9.96302C55.929 9.52102 56.596 9.18802 57.342 8.96202C58.087 8.73702 58.867 8.62402 59.682 8.62402C60.722 8.62402 61.671 8.78502 62.529 9.10502C63.387 9.42602 64.154 9.98502 64.83 10.782L63.036 12.342Z" fill="black"/>
<path d="M69.513 9H74.219C75.103 9 75.982 9.052 76.858 9.156C77.734 9.26 78.517 9.486 79.211 9.832C79.904 10.179 80.469 10.686 80.901 11.353C81.334 12.02 81.551 12.926 81.551 14.07C81.551 15.422 81.144 16.514 80.329 17.346C79.514 18.178 78.388 18.707 76.948 18.931L82.175 27.408H79.497L74.505 19.14H71.696V27.408H69.512L69.513 9ZM71.696 17.112H73.646C74.252 17.112 74.881 17.095 75.532 17.06C76.181 17.026 76.78 16.913 77.325 16.722C77.872 16.532 78.322 16.233 78.678 15.825C79.032 15.418 79.21 14.833 79.21 14.07C79.21 13.411 79.081 12.883 78.821 12.484C78.56 12.085 78.217 11.778 77.794 11.561C77.368 11.345 76.892 11.202 76.364 11.132C75.835 11.063 75.302 11.028 74.764 11.028H71.696V17.112Z" fill="black"/>
<path d="M96.513 9H108.083V11.028H98.696V16.8H107.459V18.828H98.696V25.381H108.55V27.408H96.512L96.513 9Z" fill="black"/>
<path d="M91.1824 16.7898V17.7273H87.3642V16.7898H91.1824Z" fill="black"/>
<path d="M112.159 11.4205V9.54545H125.25V11.4205H119.761V27H117.648V11.4205H112.159ZM130.866 9.54545V27H128.752V9.54545H130.866Z" fill="black"/>
<path d="M135 9H137.184V16.956H137.496L145.867 9H149.013L139.913 17.398L149.455 27.408H146.258L137.496 18.048H137.184V27.408H135V9Z" fill="black"/>
</svg>
